# AST/ASF file generated using VICON BodyLanguage
# -----------------------------------------------
:version 1.10
:name VICON
:units
  mass 1.0
  length 0.45
  angle deg
:documentation
   .ast/.asf automatically generated from VICON data using
   VICON BodyBuilder and BodyLanguage model FoxedUp or BRILLIANT.MOD
:root
   order TX TY TZ RX RY RZ
   axis XYZ
   position 0 0 0  
   orientation 0 0 0 
:bonedata
  begin
     id 1 
     name lhipjoint
     direction 0.671379 -0.66392 0.329334 
     length 2.38647 
     axis 0 0 0  XYZ
  end
  begin
     id 2 
     name lfemur
     direction 0.34202 -0.939693 0  
     length 6.48179  
     axis 0 0 20  XYZ
    dof rx ry rz
    limits (-160.0 20.0)
           (-70.0 70.0)
           (-60.0 70.0)
  end
  begin
     id 3 
     name ltibia
     direction 0.34202 -0.939693 0   
     length 6.86524   
     axis 0 0 20   XYZ
    dof rx
    limits (-10.0 170.0)
  end
  begin
     id 4 
     name lfoot
     direction 0.204886 -0.562919 0.800715   
     length 1.73031   
     axis -90 7.62852e-016 20   XYZ
    dof rx rz
    limits (-45.0 90.0)
           (-70.0 20.0)
  end
  begin
     id 5 
     name ltoes
     direction 1.53548e-011 -4.21841e-011 1   
     length 0.828161   
     axis -90 7.62852e-016 20   XYZ
    dof rx
    limits (-90.0 20.0)
  end
  begin
     id 6 
     name rhipjoint
     direction -0.662732 -0.670855 0.332775   
     length 2.3618  
     axis 0 0 0  XYZ 
  end
  begin
     id 7 
     name rfemur
     direction -0.34202 -0.939693 0   
     length 6.3025   
     axis 0 0 -20   XYZ
    dof rx ry rz
    limits (-160.0 20.0)
           (-70.0 70.0)
           (-70.0 60.0)
  end
  begin
     id 8 
     name rtibia
     direction -0.34202 -0.939693 0   
     length 6.8732   
     axis 0 0 -20   XYZ
    dof rx
    limits (-10.0 170.0)
 end
 begin
     id 9 
     name rfoot
     direction -0.173856 -0.477665 0.861168   
     length 1.54784  
     axis -90 -7.62852e-016 -20   XYZ
    dof rx rz
    limits (-45.0 90.0)
           (-20.0 70.0)
  end
  begin
     id 10 
     name rtoes
     direction -1.53562e-011 -4.21802e-011 1   
     length 0.759618   
     axis -90 -7.62852e-016 -20   XYZ
    dof rx
    limits (-90.0 20.0)
  end
  begin
     id 11 
     name lowerback
     direction -0.0278357 0.999497 -0.0151789   
     length 1.97203   
     axis 0 0 0   XYZ
    dof rx ry rz
    limits (-20.0 45.0)
           (-30.0 30.0)
           (-30.0 30.0)
  end
  begin
     id 12 
     name upperback
     direction -0.00360622 0.997542 0.0699804   
     length 1.94709   
     axis 0 0 0   XYZ
    dof rx ry rz
    limits (-20.0 45.0)
           (-30.0 30.0)
           (-30.0 30.0)
  end
  begin
     id 13 
     name thorax
     direction 0.00907706 0.997048 0.0762461   
     length 1.95722   
     axis 0 0 0   XYZ
    dof rx ry rz
    limits (-20.0 45.0)
           (-30.0 30.0)
           (-30.0 30.0)
  end
  begin
     id 14 
     name lowerneck
     direction -0.0481835 0.99872 -0.0153927   
     length 1.63078   
     axis 0 0 0   XYZ
    dof rx ry rz
    limits (-20.0 45.0)
           (-30.0 30.0)
           (-30.0 30.0)
  end
  begin
     id 15 
     name upperneck
     direction 0.0859716 0.979226 -0.183644   
     length 1.62591   
     axis 0 0 0   XYZ
    dof rx ry rz
    limits (-20.0 45.0)
           (-30.0 30.0)
           (-30.0 30.0)
  end
  begin
     id 16
     name head
     direction 0.0324821 0.997629 -0.0606773  
     length 1.64811  
     axis 0 0 0   XYZ
    dof rx ry rz
    limits (-20.0 45.0)
           (-30.0 30.0)
           (-30.0 30.0)
  end
  begin
     id 17 
     name lclavicle
     direction 0.939609 0.311019 0.142835  
     length 3.70647  
     axis 0 0 0   XYZ
    dof ry rz
    limits (-20.0 10.0)
           (0.0 20.0)
  end
  begin
     id 18 
     name lhumerus
     direction 1 -4.48963e-011 -1.59838e-027   
     length 4.59207   
     axis 180 -30 -90   XYZ
    dof rx ry rz
    limits (-60.0 90.0)
           (-90.0 90.0)
           (-90.0 90.0)
  end
  begin
     id 19
     name lradius
     direction 1 -4.48957e-011 -1.3483e-026   
     length 2.98109   
     axis 180 -30 -90   XYZ
    dof rx
    limits (-10.0 170.0)
  end
  begin
     id 20
     name lwrist
     direction 1 -4.48954e-011 -3.11579e-026   
     length 1.49055   
     axis 2.00652e-014 90 90   XYZ
    dof ry
    limits (-180.0 0.0)
 end
  begin
     id 21 
     name lhand
     direction 1 -4.4911e-011 -6.23158e-026   
     length 0.480203   
     axis 3.97628e-014 90 90   XYZ
    dof rx rz
    limits (-90.0 90.0)
           (-45.0 45.0)
  end
  begin
     id 22 
     name lfingers
     direction 1 -4.48893e-011 -1.24632e-025   
     length 0.387152   
     axis 7.95256e-014 90 90   XYZ
    dof rx
    limits (0.0 90.0)
  end
  begin
     id 23
     name lthumb
     direction 0.707107 -6.35013e-011 0.707107   
     length 0.555875   
     axis -90 45 2.85299e-015   XYZ
    dof rx rz
    limits (-45.0 45.0)
           (-45.0 45.0)
  end
  begin
     id 24 
     name rclavicle
     direction -0.950396 0.30392 0.0661859   
     length 3.70894  
     axis 0 0 0   XYZ 
    dof ry rz
    limits (-10.0 20.0)
           (-20.0 0.0)
  end
  begin
     id 25 
     name rhumerus
     direction -1 -4.48957e-011 -2.96677e-027  
     length 4.76508   
     axis 180 30 90   XYZ
    dof rx ry rz
    limits (-90.0 60.0)
           (-90.0 90.0)
           (-90.0 90.0)
  end
  begin
     id 26 
     name rradius
     direction -1 -4.48974e-011 -1.44501e-026   
     length 2.78902   
     axis 180 30 90   XYZ
    dof rx
    limits (-10.0 170.0)
  end
  begin
     id 27 
     name rwrist
     direction -1 -4.48978e-011 -3.11579e-026   
     length 1.39451   
     axis 2.00652e-014 -90 -90   XYZ
    dof ry
    limits (-180.0 0.0)
  end
  begin
     id 28
     name rhand
     direction -1 -4.48956e-011 -6.23158e-026   
     length 0.721303   
     axis 3.97628e-014 -90 -90   XYZ
    dof rx rz
    limits (-90.0 90.0)
           (-45.0 45.0)
  end
  begin
     id 29
     name rfingers
     direction -1 -4.4899e-011 -1.24632e-025   
     length 0.581533   
     axis 7.95256e-014 -90 -90   XYZ
    dof rx
    limits (0.0 90.0)
  end
  begin
     id 30
     name rthumb
     direction -0.707107 -6.34911e-011 0.707107   
     length 0.834968   
     axis -90 -45 -2.85299e-015   XYZ
    dof rx rz
    limits (-45.0 45.0)
           (-45.0 45.0)
  end
:hierarchy
  begin
    root lhipjoint rhipjoint lowerback
    lhipjoint lfemur
    lfemur ltibia
    ltibia lfoot
    lfoot ltoes
    rhipjoint rfemur
    rfemur rtibia
    rtibia rfoot
    rfoot rtoes
    lowerback upperback
    upperback thorax
    thorax lowerneck lclavicle rclavicle
    lowerneck upperneck
    upperneck head
    lclavicle lhumerus
    lhumerus lradius
    lradius lwrist
    lwrist lhand lthumb
    lhand lfingers
    rclavicle rhumerus
    rhumerus rradius
    rradius rwrist
    rwrist rhand rthumb
    rhand rfingers
  end

#!OML:ASF I:\salsa\salsa 7_09\Patient 1\Session 1\dancerfemale.ASF
:FULLY-SPECIFIED
:DEGREES
264
root 17.293 15.5769 -0.409456 280.804 -83.7241 -641.288
lowerback 11.6921 -2.33221 -0.639948
upperback -6.55842 -3.94295 -4.0523
thorax -14.1519 -2.10384 -3.20191
lowerneck -3.26931 -1.11982 -11.6807
upperneck 11.083 -2.2123 12.6248
head 4.05995 -1.03908 5.7634
rclavicle 1.55549e-014 5.96354e-015
rhumerus -64.7396 12.9257 -101.452
rradius 87.9466
rwrist -1.92256
rhand 11.1399 52.396
rfingers 7.12502
rthumb 36.2067 26.1305
lclavicle 1.55549e-014 5.96354e-015
lhumerus -41.5961 -23.3593 106.337
lradius 117.882
lwrist -12.7719
lhand -6.41748 47.59
lfingers 7.12502
lthumb 19.431 76.6391
rfemur -19.831 -6.54482 15.1781
rtibia 50.1195
rfoot -11.1998 -29.1404
rtoes 31.9974
lfemur -18.7515 -2.63192 -29.8272
ltibia 43.4268
lfoot -25.8921 2.02768
ltoes -18.1313
265
root 17.2555 15.5675 -0.392814 289.128 -82.6154 -649.899
lowerback 11.9529 -2.9171 -0.44015
upperback -6.45224 -4.82117 -4.75653
thorax -14.3475 -2.58977 -3.88123
lowerneck -3.55518 -1.0045 -11.8445
upperneck 11.4338 -2.12563 13.2464
head 4.20544 -0.96979 6.00343
rclavicle -9.74045e-015 1.03368e-014
rhumerus -65.7308 12.2018 -100.733
rradius 88.3679
rwrist -2.20802
rhand 11.6033 52.4844
rfingers 7.12502
rthumb 36.6454 26.3291
lclavicle -9.74045e-015 1.03368e-014
lhumerus -41.4704 -24.4596 107.132
lradius 117.504
lwrist -12.2555
lhand -6.0691 47.2188
lfingers 7.12502
lthumb 19.7659 76.2338
rfemur -20.2574 -7.20217 13.9275
rtibia 51.1081
rfoot -12.0181 -29.2375
rtoes 33.8844
lfemur -17.9292 -2.80521 -30.7542
ltibia 42.7881
lfoot -25.9677 1.1097
ltoes -17.9529
266
root 17.2135 15.5648 -0.389166 293.959 -81.6459 -654.855
lowerback 12.0446 -3.42102 -0.235498
upperback -6.38566 -5.58 -5.38537
thorax -14.4965 -3.01919 -4.51203
lowerneck -3.84309 -0.900437 -12.084
upperneck 11.7432 -2.05642 13.9427
head 4.34162 -0.907402 6.28239
rclavicle -1.56046e-014 -7.95139e-016
rhumerus -66.4909 11.6812 -100.172
rradius 88.739
rwrist -2.44646
rhand 12.076 52.355
rfingers 7.12502
rthumb 37.0926 26.3145
lclavicle -1.56046e-014 -7.95139e-016
lhumerus -41.4372 -25.4186 107.841
lradius 116.967
lwrist -11.9073
lhand -5.69785 46.5419
lfingers 7.12502
lthumb 20.1228 75.5198
rfemur -20.6231 -7.28663 12.9429
rtibia 51.3907
rfoot -13.0907 -29.683
rtoes 34.6586
lfemur -17.3089 -2.57111 -31.4172
ltibia 42.1734
lfoot -25.9397 0.116427
ltoes -18.3673
267
root 17.1659 15.5711 -0.398087 296.869 -80.9831 -657.751
lowerback 11.9114 -3.81204 -0.0270655
upperback -6.37111 -6.16798 -5.90905
thorax -14.5585 -3.36541 -5.07959
lowerneck -3.80373 -0.770448 -12.1147
upperneck 11.8447 -1.96664 14.4772
head 4.35311 -0.845585 6.47024
rclavicle 3.23025e-014 6.52014e-014
rhumerus -67.198 11.1512 -99.6873
rradius 89.1486
rwrist -2.56937
rhand 11.8963 52.4894
rfingers 7.12502
rthumb 36.9226 26.405
lclavicle 3.23025e-014 6.52014e-014
lhumerus -41.553 -26.2588 108.545
lradius 116.281
lwrist -11.7072
lhand -5.76384 46.0533
lfingers 7.12502
lthumb 20.0594 75.0378
rfemur -20.866 -6.78024 12.3334
rtibia 51.0058
rfoot -14.7418 -30.3705
rtoes 34.0129
lfemur -16.8889 -1.99787 -31.7247
ltibia 41.6509
lfoot -25.8509 -0.982845
ltoes -18.7661
268
root 17.1132 15.5764 -0.412733 299.012 -80.4929 -659.804
lowerback 11.5509 -4.13286 0.270805
upperback -6.32647 -6.62673 -6.38254
thorax -14.4473 -3.65726 -5.68771
lowerneck -3.65325 -0.627736 -12.2563
upperneck 11.7538 -1.84795 15.08
head 4.28419 -0.775253 6.698
rclavicle 2.90226e-014 3.18055e-014
rhumerus -67.7192 10.6402 -99.2791
rradius 89.6752
rwrist -2.81941
rhand 11.2808 52.6381
rfingers 7.12502
rthumb 36.3401 26.4059
lclavicle 2.90226e-014 3.18055e-014
lhumerus -41.5899 -26.8759 109.051
lradius 115.541
lwrist -12.3354
lhand -4.21459 45.9748
lfingers 7.12502
lthumb 21.5479 74.7961
rfemur -20.9638 -6.01382 11.8933
rtibia 50.1049
rfoot -15.9696 -30.6559
rtoes 32.4493
lfemur -16.5959 -1.42804 -31.868
ltibia 41.26
lfoot -25.741 -1.97977
ltoes -18.6965
269
root 17.0641 15.5808 -0.426286 300.065 -80.2158 -660.794
lowerback 11.2458 -4.34931 0.777763
upperback -6.20971 -6.89579 -6.82069
thorax -14.2953 -3.87479 -6.42454
lowerneck -3.82588 -0.573927 -12.5298
upperneck 11.7173 -1.80637 15.6797
head 4.29962 -0.733993 6.9477
rclavicle 3.12092e-014 -2.38542e-015
rhumerus -67.8712 10.1256 -98.8925
rradius 90.1668
rwrist -3.20584
rhand 11.1729 52.8243
rfingers 7.12502
rthumb 36.238 26.5666
lclavicle 3.12092e-014 -2.38542e-015
lhumerus -41.5719 -27.2858 109.391
lradius 114.821
lwrist -13.8357
lhand -1.70174 45.6402
lfingers 7.12502
lthumb 23.9594 74.1652
rfemur -20.8609 -5.08686 11.5944
rtibia 48.8325
rfoot -17.1416 -30.4102
rtoes 29.7175
lfemur -16.3678 -0.577337 -31.8948
ltibia 41.0405
lfoot -25.6229 -3.02514
ltoes -18.2919
270
root 17.0184 15.5738 -0.439109 299.552 -79.9702 -660.38
lowerback 11.1537 -4.46112 1.20784
upperback -6.02106 -7.04056 -7.28176
thorax -14.1752 -4.02496 -7.16856
lowerneck -4.29976 -0.57892 -12.9604
upperneck 11.8618 -1.81633 16.2796
head 4.43067 -0.709966 7.23058
rclavicle 2.18663e-014 5.56597e-015
rhumerus -67.7319 9.61426 -98.6031
rradius 90.6638
rwrist -3.59796
rhand 11.5067 52.9713
rfingers 7.12502
rthumb 36.554 26.7929
lclavicle 2.18663e-014 5.56597e-015
lhumerus -41.6983 -27.5399 109.701
lradius 114.145
lwrist -15.7234
lhand -0.0653378 44.8905
lfingers 7.12502
lthumb 25.5278 73.2003
rfemur -20.461 -4.33719 11.2162
rtibia 47.4143
rfoot -17.7794 -30.4478
rtoes 27.1884
lfemur -16.1253 1.29054 -31.9648
ltibia 41.0717
lfoot -25.5358 -4.84901
ltoes -18.087
271
root 16.9609 15.5596 -0.45755 299.746 -79.7196 -660.88
lowerback 11.107 -4.65922 1.60784
upperback -5.78937 -7.3038 -7.72655
thorax -14.0528 -4.22422 -7.84752
lowerneck -4.63186 -0.49805 -13.4025
upperneck 11.9907 -1.72302 16.903
head 4.51569 -0.640576 7.53062
rclavicle -4.19436e-014 -4.21423e-014
rhumerus -67.5679 9.3185 -98.6708
rradius 91.3792
rwrist -4.06053
rhand 11.5236 53.0265
rfingers 7.12502
rthumb 36.57 26.8521
lclavicle -4.19436e-014 -4.21423e-014
lhumerus -42.1078 -27.4854 109.871
lradius 113.581
lwrist -17.7718
lhand 0.809281 43.9095
lfingers 7.12502
lthumb 26.3653 72.0965
rfemur -19.6688 -3.88546 11.0117
rtibia 46.0274
rfoot -18.3366 -30.914
rtoes 24.4094
lfemur -15.7653 3.33078 -31.8745
ltibia 41.3298
lfoot -25.528 -6.88935
ltoes -18.5069
272
root 16.9043 15.5469 -0.48751 300.68 -79.981 -662.233
lowerback 11.2113 -4.87517 2.27434
upperback -5.58391 -7.5141 -7.96857
thorax -14.0575 -4.40409 -8.45524
lowerneck -4.62001 -0.368031 -13.2752
upperneck 11.9205 -1.58567 17.1531
head 4.46927 -0.559153 7.59743
rclavicle 5.56597e-015 -1.74931e-014
rhumerus -67.422 9.18606 -99.0961
rradius 92.3876
rwrist -4.49109
rhand 11.093 52.9006
rfingers 7.12502
rthumb 36.1622 26.6241
lclavicle 5.56597e-015 -1.74931e-014
lhumerus -42.5766 -26.9762 109.752
lradius 113.22
lwrist -20.3435
lhand 2.60212 42.9034
lfingers 7.12502
lthumb 28.0803 70.8216
rfemur -18.4758 -3.33851 11.5634
rtibia 44.7497
rfoot -19.3015 -31.8471
rtoes 22.3087
lfemur -15.3997 4.22772 -31.2492
ltibia 41.7417
lfoot -25.5223 -7.64445
ltoes -19.2124
